<svg height="512" viewBox="0 0 64 64" width="512" xmlns="http://www.w3.org/2000/svg"><g id="Icons"><g><g><path d="m12 32h12v4h-12z" fill="#505050"/></g><g><path d="m24 28v-4h-7c-.552 0-1-.448-1-1v-7h-4v8c0 2.209 1.791 4 4 4z" fill="#505050"/></g><g><path d="m26 40v4h-9c-.552 0-1 .448-1 1v7h-4v-8c0-2.209 1.791-4 4-4z" fill="#505050"/></g><g><path d="m12 32h2v4h-2z" fill="#3c3c3c"/></g><g><path d="m14 24v-8h-2v8c0 2.209 1.791 4 4 4h2c-2.209 0-4-1.791-4-4z" fill="#3c3c3c"/></g><g><path d="m18 40h-2c-2.209 0-4 1.791-4 4v8h2v-8c0-2.209 1.791-4 4-4z" fill="#3c3c3c"/></g><g><path d="m40 28v-4h7c.552 0 1-.448 1-1v-7h4v8c0 2.209-1.791 4-4 4z" fill="#505050"/></g><g><path d="m50 23v-7h-2v7c0 .552-.448 1-1 1h2c.552 0 1-.448 1-1z" fill="#3c3c3c"/></g><g><path d="m38 42c0-5.213 3.347-9.647 8-11.3v-6.7c0-2.209-1.791-4-4-4h-20c-2.209 0-4 1.791-4 4v12c0 7.732 6.268 14 14 14 2.765 0 5.334-.812 7.505-2.195-.956-1.722-1.505-3.7-1.505-5.805z" fill="#fa6450"/></g><g><path d="m36 12v-6c0-1.105.895-2 2-2h4v2h-3c-.552 0-1 .448-1 1v5z" fill="#fab400"/></g><g><path d="m28 12v-6c0-1.105-.895-2-2-2h-4v2h3c.552 0 1 .448 1 1v5z" fill="#fab400"/></g><g><path d="m42 20h-20v-2c0-5.523 4.477-10 10-10 5.523 0 10 4.477 10 10z" fill="#505050"/></g><g><path d="m22 36v-12c0-2.209 1.791-4 4-4h-4c-2.209 0-4 1.791-4 4v12c0 7.732 6.268 14 14 14 .681 0 1.345-.065 2-.159-6.782-.973-12-6.79-12-13.841z" fill="#dc4632"/></g><g><path d="m34 8.201c-.646-.131-1.315-.201-2-.201-5.523 0-10 4.477-10 10v2h4v-2c0-4.838 3.436-8.872 8-9.799z" fill="#3c3c3c"/></g><g><path d="m50 60c1.105 0 2-.895 2-2v-8h-4v8c0 1.105.895 2 2 2z" fill="#505050"/></g><g><path d="m50 58v-8h-2v8c0 1.105.895 2 2 2 .366 0 .705-.106 1-.277-.595-.347-1-.985-1-1.723z" fill="#3c3c3c"/></g><g><path d="m48 54h4v2h-4z" fill="#fab400"/></g><g><path d="m48 54h2v2h-2z" fill="#dc9600"/></g><g><path d="m50 52c-5.514 0-10-4.486-10-10s4.486-10 10-10 10 4.486 10 10-4.486 10-10 10z" fill="#505050"/></g><g><path d="m42 42c0-5.177 3.954-9.446 9-9.949-.329-.033-.662-.051-1-.051-5.514 0-10 4.486-10 10s4.486 10 10 10c.338 0 .671-.018 1-.051-5.046-.503-9-4.772-9-9.949z" fill="#3c3c3c"/></g><g><circle cx="50" cy="42" fill="#64c8f0" r="8"/></g><g><path d="m54 42.8v-1.6h-.905c-.076-.293-.191-.569-.341-.823l.64-.64-1.131-1.131-.64.64c-.254-.15-.53-.265-.823-.341v-.905h-1.6v.905c-.293.076-.569.191-.823.341l-.64-.64-1.131 1.131.64.64c-.15.254-.265.53-.341.823h-.905v1.6h.905c.076.293.191.569.341.823l-.64.64 1.131 1.131.64-.64c.254.15.53.265.823.341v.905h1.6v-.905c.293-.076.569-.191.823-.341l.64.64 1.131-1.131-.64-.64c.15-.254.265-.53.341-.823zm-4 .8c-.882 0-1.6-.718-1.6-1.6s.718-1.6 1.6-1.6 1.6.718 1.6 1.6-.718 1.6-1.6 1.6z" fill="#f0f0f0"/></g><g><path d="m29.5 28h1v12h-1z" fill="#505050"/></g><g><path d="m31.5 28h1v12h-1z" fill="#505050"/></g><g><path d="m33.5 28h1v12h-1z" fill="#505050"/></g><g><path d="m26 31.5h12v1h-12z" fill="#505050"/></g><g><path d="m26 33.5h12v1h-12z" fill="#505050"/></g><g><path d="m26 35.5h12v1h-12z" fill="#505050"/></g><g><path d="m28 30h8v8h-8z" fill="#505050"/></g><g><path d="m30 32h4v4h-4z" fill="#3cc8b4" transform="matrix(0 -1 1 0 -2 66)"/></g></g></g></svg>