<?xml version="1.0" encoding="iso-8859-1"?>
<!-- Generator: Adobe Illustrator 19.0.0, SVG Export Plug-In . SVG Version: 6.00 Build 0)  -->
<svg version="1.1" id="Capa_1" xmlns="http://www.w3.org/2000/svg" xmlns:xlink="http://www.w3.org/1999/xlink" x="0px" y="0px"
	 viewBox="0 0 512 512" style="enable-background:new 0 0 512 512;" xml:space="preserve">
<g transform="translate(1 1)">
	<polygon style="fill:#FFE100;" points="101.38,400.086 101.38,195.259 400.086,195.259 400.086,109.915 297.673,109.915 
		297.673,7.502 7.501,7.502 7.501,502.499 400.086,502.499 400.086,400.086 	"/>
	<polygon style="fill:#FFA800;" points="374.482,502.499 400.086,502.499 400.086,109.915 374.482,109.915 	"/>
	<polygon style="fill:#63D3FD;" points="101.38,400.086 502.499,400.086 502.499,195.259 101.38,195.259 	"/>
	<polygon style="fill:#3DB9F9;" points="476.896,400.086 502.499,400.086 502.499,195.259 476.896,195.259 	"/>
	<polygon style="fill:#FDCC00;" points="400.086,109.915 297.673,109.915 297.673,7.502 	"/>
	<polygon style="fill:#FFFFFF;" points="7.501,502.499 33.104,502.499 33.104,7.502 7.501,7.502 	"/>
	<path d="M400.105,118.415c-0.005,0-0.013,0-0.02,0H297.673c-4.695,0-8.501-3.806-8.501-8.501V7.502
		c0-3.438,2.071-6.538,5.248-7.854c3.177-1.316,6.832-0.589,9.265,1.843l102.075,102.075c1.747,1.557,2.847,3.824,2.847,6.349
		C408.606,114.61,404.8,118.415,400.105,118.415z M306.174,101.413h73.388l-73.388-73.388V101.413z"/>
	<path d="M502.499,408.587H101.38c-4.695,0-8.501-3.806-8.501-8.501V195.259c0-4.695,3.806-8.501,8.501-8.501h401.119
		c4.695,0,8.501,3.806,8.501,8.501v204.826C511,404.78,507.194,408.587,502.499,408.587z M109.881,391.584h384.117V203.76H109.881
		V391.584z"/>
	<path d="M323.276,374.449c-23.512,0-42.639-19.127-42.639-42.639c0-4.695,3.806-8.501,8.501-8.501s8.501,3.806,8.501,8.501
		c0,14.137,11.5,25.637,25.637,25.637c14.136,0,25.636-11.5,25.636-25.637c0-14.136-11.5-25.636-25.636-25.636
		c-23.512,0-42.639-19.127-42.639-42.64c0-23.511,19.127-42.638,42.639-42.638c23.511,0,42.639,19.127,42.639,42.638
		c0,4.695-3.806,8.501-8.501,8.501s-8.501-3.806-8.501-8.501c0-14.136-11.5-25.636-25.636-25.636
		c-14.137,0-25.637,11.5-25.637,25.636c0,14.137,11.5,25.637,25.637,25.637c23.511,0,42.639,19.127,42.639,42.638
		C365.913,355.322,346.786,374.449,323.276,374.449z"/>
	<path d="M434.223,374.449c-23.512,0-42.639-19.127-42.639-42.639c0-4.695,3.806-8.501,8.501-8.501s8.501,3.806,8.501,8.501
		c0,14.137,11.5,25.637,25.637,25.637c14.136,0,25.636-11.5,25.636-25.637c0-14.136-11.5-25.636-25.636-25.636
		c-23.512,0-42.639-19.127-42.639-42.64c0-23.511,19.127-42.638,42.639-42.638c23.511,0,42.638,19.127,42.638,42.638
		c0,4.695-3.806,8.501-8.501,8.501c-4.695,0-8.501-3.806-8.501-8.501c0-14.136-11.5-25.636-25.636-25.636
		c-14.137,0-25.637,11.5-25.637,25.636c0,14.137,11.5,25.637,25.637,25.637c23.511,0,42.638,19.127,42.638,42.638
		C476.862,355.322,457.734,374.449,434.223,374.449z"/>
	<path d="M203.793,374.449c-42.334,0-76.777-34.442-76.777-76.777s34.442-76.776,76.777-76.776c17.401,0,34.445,5.983,47.991,16.847
		c3.662,2.937,4.25,8.288,1.313,11.951c-2.937,3.662-8.287,4.251-11.951,1.313c-10.691-8.576-23.608-13.109-37.353-13.109
		c-32.96,0-59.775,26.814-59.775,59.774s26.814,59.775,59.775,59.775c13.743,0,26.663-4.534,37.364-13.11
		c3.664-2.936,9.014-2.347,11.951,1.317c2.936,3.662,2.346,9.013-1.317,11.95C238.237,368.466,221.192,374.449,203.793,374.449z"/>
	<path d="M400.085,511H7.501C2.806,511-1,507.193-1,502.499V7.502c0-4.695,3.806-8.501,8.501-8.501h290.171
		c4.695,0,8.501,3.806,8.501,8.501v93.912h93.911c4.695,0,8.501,3.806,8.501,8.501v85.344c0,4.695-3.806,8.501-8.501,8.501H109.881
		v187.824h290.204c4.695,0,8.501,3.806,8.501,8.501v102.413C408.586,507.193,404.78,511,400.085,511z M16.002,493.998h375.581
		v-85.411H101.38c-4.695,0-8.501-3.806-8.501-8.501V195.259c0-4.695,3.806-8.501,8.501-8.501h290.204v-68.343h-93.911
		c-4.695,0-8.501-3.806-8.501-8.501V16.002H16.002V493.998z"/>
</g>
<g>
</g>
<g>
</g>
<g>
</g>
<g>
</g>
<g>
</g>
<g>
</g>
<g>
</g>
<g>
</g>
<g>
</g>
<g>
</g>
<g>
</g>
<g>
</g>
<g>
</g>
<g>
</g>
<g>
</g>
</svg>
